<svg xmlns="http://www.w3.org/2000/svg" xmlns:xlink="http://www.w3.org/1999/xlink" width="2560" zoomAndPan="magnify" viewBox="0 0 1920 1079.999946" height="1440" preserveAspectRatio="xMidYMid meet" version="1.0"><defs><clipPath id="ff527bc902"><path d="M 1166 471 L 1297 471 L 1297 586.566406 L 1166 586.566406 Z M 1166 471 " clip-rule="nonzero"/></clipPath><clipPath id="29aa512b55"><path d="M 1166 903 L 1297 903 L 1297 1018.566406 L 1166 1018.566406 Z M 1166 903 " clip-rule="nonzero"/></clipPath><clipPath id="135db68e13"><path d="M 1089 39 L 1221 39 L 1221 154.566406 L 1089 154.566406 Z M 1089 39 " clip-rule="nonzero"/></clipPath><clipPath id="2334ac69db"><path d="M 720 255 L 852 255 L 852 370.566406 L 720 370.566406 Z M 720 255 " clip-rule="nonzero"/></clipPath><clipPath id="156644a4c2"><path d="M 778 661 L 910 661 L 910 776.609375 L 778 776.609375 Z M 778 661 " clip-rule="nonzero"/></clipPath><clipPath id="640a6eed55"><path d="M 409 833 L 540 833 L 540 948.78125 L 409 948.78125 Z M 409 833 " clip-rule="nonzero"/></clipPath><clipPath id="ec1b9d1350"><path d="M 0 182 L 38 182 L 38 297.261719 L 0 297.261719 Z M 0 182 " clip-rule="nonzero"/></clipPath><clipPath id="08b700afed"><path d="M 111 272.21875 L 232 272.21875 L 232 379 L 111 379 Z M 111 272.21875 " clip-rule="nonzero"/></clipPath><clipPath id="37f3cfd2d7"><path d="M 0 589 L 98 589 L 98 704.21875 L 0 704.21875 Z M 0 589 " clip-rule="nonzero"/></clipPath></defs><rect x="-192" width="2304" fill="#ffffff" y="-107.999995" height="1295.999935" fill-opacity="1"/><rect x="-192" width="2304" fill="#efeae7" y="-107.999995" height="1295.999935" fill-opacity="1"/><path fill="#89b9bc" d="M 1767.511719 392.765625 C 1768.179688 392.898438 1768.851562 393.03125 1769.65625 393.03125 C 1778.507812 393.703125 1788.164062 388.742188 1793.527344 381.765625 C 1798.757812 375.0625 1798.894531 366.746094 1799.027344 358.566406 C 1799.160156 347.164062 1799.429688 334.828125 1796.210938 323.828125 C 1794.46875 317.660156 1790.847656 311.089844 1784.8125 308.539062 C 1777.03125 305.1875 1768.316406 308.675781 1760.671875 312.160156 C 1755.574219 314.574219 1750.476562 317.125 1746.589844 321.148438 C 1735.1875 332.679688 1731.96875 355.210938 1739.078125 369.5625 C 1743.773438 379.621094 1755.707031 390.753906 1767.511719 392.765625 Z M 1767.511719 392.765625 " fill-opacity="1" fill-rule="nonzero"/><path fill="#b0c4d0" d="M 1782.933594 102.539062 C 1800.367188 96.503906 1814.71875 82.554688 1820.082031 64.179688 C 1826.117188 43.527344 1820.21875 13.621094 1799.160156 4.097656 C 1790.308594 0.0742188 1780.117188 0.207031 1770.59375 1.683594 C 1746.722656 5.4375 1701.527344 10.535156 1702.734375 43.660156 C 1703.402344 62.035156 1709.707031 80.273438 1724.191406 92.34375 C 1735.1875 101.464844 1749.40625 105.890625 1763.621094 105.890625 C 1770.191406 105.757812 1776.765625 104.683594 1782.933594 102.539062 Z M 1782.933594 102.539062 " fill-opacity="1" fill-rule="nonzero"/><path fill="#8cb6b8" d="M 1645.734375 428.4375 C 1664.777344 421.867188 1680.46875 406.578125 1686.371094 386.460938 C 1692.941406 363.929688 1686.503906 331.207031 1663.4375 320.609375 C 1653.78125 316.183594 1642.648438 316.320312 1632.1875 317.929688 C 1606.035156 321.953125 1556.679688 327.585938 1558.023438 363.796875 C 1558.691406 383.914062 1565.667969 403.894531 1581.492188 417.039062 C 1593.5625 427.097656 1609.121094 431.925781 1624.542969 431.792969 C 1631.917969 431.925781 1639.027344 430.71875 1645.734375 428.4375 Z M 1645.734375 428.4375 " fill-opacity="1" fill-rule="nonzero"/><path fill="#74a1ba" d="M 1699.648438 258.113281 C 1722.179688 252.882812 1735.1875 226.058594 1730.496094 204.464844 C 1728.484375 195.480469 1723.65625 186.898438 1716.011719 181.667969 C 1703.269531 172.949219 1685.03125 174.289062 1670.679688 177.644531 C 1653.914062 181.53125 1635.539062 194.140625 1633.394531 212.648438 C 1632.054688 224.316406 1638.757812 235.582031 1647.476562 243.359375 C 1661.15625 255.5625 1681.542969 262.269531 1699.648438 258.113281 Z M 1699.648438 258.113281 " fill-opacity="1" fill-rule="nonzero"/><path fill="#cbdad9" d="M 1581.222656 248.589844 C 1579.210938 237.191406 1573.980469 227.265625 1561.910156 224.449219 C 1547.828125 221.230469 1527.445312 224.851562 1518.457031 236.921875 C 1505.3125 254.492188 1516.714844 286.277344 1536.964844 293.652344 C 1546.488281 297.140625 1562.582031 294.457031 1570.628906 287.886719 C 1581.089844 279.4375 1583.773438 262.804688 1581.222656 248.589844 Z M 1581.222656 248.589844 " fill-opacity="1" fill-rule="nonzero"/><path fill="#a6c1cb" d="M 1910.34375 235.714844 C 1920 216 1918.660156 192.128906 1897.199219 177.105469 C 1875.609375 161.953125 1843.019531 164.902344 1820.621094 177.105469 C 1793.527344 191.992188 1787.089844 226.058594 1793.261719 254.089844 C 1802.917969 297.542969 1857.234375 278.632812 1884.058594 263.878906 C 1895.324219 257.574219 1904.710938 247.25 1910.34375 235.714844 Z M 1910.34375 235.714844 " fill-opacity="1" fill-rule="nonzero"/><path fill="#89b9bc" d="M 1662.230469 86.578125 C 1667.863281 75.042969 1667.058594 61.230469 1654.585938 52.511719 C 1641.976562 43.796875 1623.066406 45.40625 1610.058594 52.511719 C 1594.234375 61.097656 1590.476562 80.945312 1594.097656 97.308594 C 1599.730469 122.519531 1631.382812 111.523438 1646.941406 102.941406 C 1653.511719 99.183594 1659.011719 93.285156 1662.230469 86.578125 Z M 1662.230469 86.578125 " fill-opacity="1" fill-rule="nonzero"/><path fill="#78a7bc" d="M 1568.214844 131.371094 C 1574.519531 115.949219 1574.117188 98.378906 1562.046875 80.945312 C 1551.449219 65.523438 1534.6875 56.535156 1518.1875 53.453125 C 1474.871094 45.269531 1440 90.332031 1448.449219 138.480469 C 1451.535156 156.453125 1462.800781 173.753906 1479.027344 178.984375 C 1508.53125 188.238281 1554.535156 164.769531 1568.214844 131.371094 Z M 1568.214844 131.371094 " fill-opacity="1" fill-rule="nonzero"/><path fill="#89b9bc" d="M 1779.511719 836.765625 C 1780.179688 836.898438 1780.851562 837.03125 1781.65625 837.03125 C 1790.507812 837.703125 1800.164062 832.742188 1805.527344 825.765625 C 1810.757812 819.0625 1810.894531 810.746094 1811.027344 802.566406 C 1811.160156 791.164062 1811.429688 778.828125 1808.210938 767.828125 C 1806.46875 761.660156 1802.847656 755.089844 1796.8125 752.539062 C 1789.03125 749.1875 1780.316406 752.675781 1772.671875 756.160156 C 1767.574219 758.574219 1762.476562 761.125 1758.589844 765.148438 C 1747.1875 776.679688 1743.96875 799.210938 1751.078125 813.5625 C 1755.773438 823.621094 1767.707031 834.753906 1779.511719 836.765625 Z M 1779.511719 836.765625 " fill-opacity="1" fill-rule="nonzero"/><path fill="#b0c4d0" d="M 1794.933594 546.539062 C 1812.367188 540.503906 1826.71875 526.554688 1832.082031 508.179688 C 1838.117188 487.527344 1832.21875 457.621094 1811.160156 448.097656 C 1802.308594 444.074219 1792.117188 444.207031 1782.59375 445.683594 C 1758.722656 449.4375 1713.527344 454.535156 1714.734375 487.660156 C 1715.402344 506.035156 1721.707031 524.273438 1736.191406 536.34375 C 1747.1875 545.464844 1761.40625 549.890625 1775.621094 549.890625 C 1782.191406 549.757812 1788.765625 548.683594 1794.933594 546.539062 Z M 1794.933594 546.539062 " fill-opacity="1" fill-rule="nonzero"/><path fill="#8cb6b8" d="M 1657.734375 872.4375 C 1676.777344 865.867188 1692.46875 850.578125 1698.371094 830.460938 C 1704.941406 807.929688 1698.503906 775.207031 1675.4375 764.609375 C 1665.78125 760.183594 1654.648438 760.320312 1644.1875 761.929688 C 1618.035156 765.953125 1568.679688 771.585938 1570.023438 807.796875 C 1570.691406 827.914062 1577.667969 847.894531 1593.492188 861.039062 C 1605.5625 871.097656 1621.121094 875.925781 1636.542969 875.792969 C 1643.917969 875.925781 1651.027344 874.71875 1657.734375 872.4375 Z M 1657.734375 872.4375 " fill-opacity="1" fill-rule="nonzero"/><path fill="#74a1ba" d="M 1711.648438 702.113281 C 1734.179688 696.882812 1747.1875 670.058594 1742.496094 648.464844 C 1740.484375 639.480469 1735.65625 630.898438 1728.011719 625.667969 C 1715.269531 616.949219 1697.03125 618.289062 1682.679688 621.644531 C 1665.914062 625.53125 1647.539062 638.140625 1645.394531 656.648438 C 1644.054688 668.316406 1650.757812 679.582031 1659.476562 687.359375 C 1673.15625 699.5625 1693.542969 706.269531 1711.648438 702.113281 Z M 1711.648438 702.113281 " fill-opacity="1" fill-rule="nonzero"/><path fill="#cbdad9" d="M 1593.222656 692.589844 C 1591.210938 681.191406 1585.980469 671.265625 1573.910156 668.449219 C 1559.828125 665.230469 1539.445312 668.851562 1530.457031 680.921875 C 1517.3125 698.492188 1528.714844 730.277344 1548.964844 737.652344 C 1558.488281 741.140625 1574.582031 738.457031 1582.628906 731.886719 C 1593.089844 723.4375 1595.773438 706.804688 1593.222656 692.589844 Z M 1593.222656 692.589844 " fill-opacity="1" fill-rule="nonzero"/><path fill="#a6c1cb" d="M 1922.34375 679.714844 C 1932 660 1930.660156 636.128906 1909.199219 621.105469 C 1887.609375 605.953125 1855.019531 608.902344 1832.621094 621.105469 C 1805.527344 635.992188 1799.089844 670.058594 1805.261719 698.089844 C 1814.917969 741.542969 1869.234375 722.632812 1896.058594 707.878906 C 1907.324219 701.574219 1916.710938 691.25 1922.34375 679.714844 Z M 1922.34375 679.714844 " fill-opacity="1" fill-rule="nonzero"/><path fill="#89b9bc" d="M 1674.230469 530.578125 C 1679.863281 519.042969 1679.058594 505.230469 1666.585938 496.511719 C 1653.976562 487.796875 1635.066406 489.40625 1622.058594 496.511719 C 1606.234375 505.097656 1602.476562 524.945312 1606.097656 541.308594 C 1611.730469 566.519531 1643.382812 555.523438 1658.941406 546.941406 C 1665.511719 543.183594 1671.011719 537.285156 1674.230469 530.578125 Z M 1674.230469 530.578125 " fill-opacity="1" fill-rule="nonzero"/><path fill="#78a7bc" d="M 1580.214844 575.371094 C 1586.519531 559.949219 1586.117188 542.378906 1574.046875 524.945312 C 1563.449219 509.523438 1546.6875 500.535156 1530.1875 497.453125 C 1486.871094 489.269531 1452 534.332031 1460.449219 582.480469 C 1463.535156 600.453125 1474.800781 617.753906 1491.027344 622.984375 C 1520.53125 632.238281 1566.535156 608.769531 1580.214844 575.371094 Z M 1580.214844 575.371094 " fill-opacity="1" fill-rule="nonzero"/><path fill="#89b9bc" d="M 1779.511719 404.765625 C 1780.179688 404.898438 1780.851562 405.03125 1781.65625 405.03125 C 1790.507812 405.703125 1800.164062 400.742188 1805.527344 393.765625 C 1810.757812 387.0625 1810.894531 378.746094 1811.027344 370.566406 C 1811.160156 359.164062 1811.429688 346.828125 1808.210938 335.828125 C 1806.46875 329.660156 1802.847656 323.089844 1796.8125 320.539062 C 1789.03125 317.1875 1780.316406 320.675781 1772.671875 324.160156 C 1767.574219 326.574219 1762.476562 329.125 1758.589844 333.148438 C 1747.1875 344.679688 1743.96875 367.210938 1751.078125 381.5625 C 1755.773438 391.621094 1767.707031 402.753906 1779.511719 404.765625 Z M 1779.511719 404.765625 " fill-opacity="1" fill-rule="nonzero"/><path fill="#b0c4d0" d="M 1794.933594 114.539062 C 1812.367188 108.503906 1826.71875 94.554688 1832.082031 76.179688 C 1838.117188 55.527344 1832.21875 25.621094 1811.160156 16.097656 C 1802.308594 12.074219 1792.117188 12.207031 1782.59375 13.683594 C 1758.722656 17.4375 1713.527344 22.535156 1714.734375 55.660156 C 1715.402344 74.035156 1721.707031 92.273438 1736.191406 104.34375 C 1747.1875 113.464844 1761.40625 117.890625 1775.621094 117.890625 C 1782.191406 117.757812 1788.765625 116.683594 1794.933594 114.539062 Z M 1794.933594 114.539062 " fill-opacity="1" fill-rule="nonzero"/><path fill="#8cb6b8" d="M 1657.734375 440.4375 C 1676.777344 433.867188 1692.46875 418.578125 1698.371094 398.460938 C 1704.941406 375.929688 1698.503906 343.207031 1675.4375 332.609375 C 1665.78125 328.183594 1654.648438 328.320312 1644.1875 329.929688 C 1618.035156 333.953125 1568.679688 339.585938 1570.023438 375.796875 C 1570.691406 395.914062 1577.667969 415.894531 1593.492188 429.039062 C 1605.5625 439.097656 1621.121094 443.925781 1636.542969 443.792969 C 1643.917969 443.925781 1651.027344 442.71875 1657.734375 440.4375 Z M 1657.734375 440.4375 " fill-opacity="1" fill-rule="nonzero"/><path fill="#74a1ba" d="M 1711.648438 270.113281 C 1734.179688 264.882812 1747.1875 238.058594 1742.496094 216.464844 C 1740.484375 207.480469 1735.65625 198.898438 1728.011719 193.667969 C 1715.269531 184.949219 1697.03125 186.289062 1682.679688 189.644531 C 1665.914062 193.53125 1647.539062 206.140625 1645.394531 224.648438 C 1644.054688 236.316406 1650.757812 247.582031 1659.476562 255.359375 C 1673.15625 267.5625 1693.542969 274.269531 1711.648438 270.113281 Z M 1711.648438 270.113281 " fill-opacity="1" fill-rule="nonzero"/><path fill="#cbdad9" d="M 1593.222656 260.589844 C 1591.210938 249.191406 1585.980469 239.265625 1573.910156 236.449219 C 1559.828125 233.230469 1539.445312 236.851562 1530.457031 248.921875 C 1517.3125 266.492188 1528.714844 298.277344 1548.964844 305.652344 C 1558.488281 309.140625 1574.582031 306.457031 1582.628906 299.886719 C 1593.089844 291.4375 1595.773438 274.804688 1593.222656 260.589844 Z M 1593.222656 260.589844 " fill-opacity="1" fill-rule="nonzero"/><path fill="#a6c1cb" d="M 1922.34375 247.714844 C 1932 228 1930.660156 204.128906 1909.199219 189.105469 C 1887.609375 173.953125 1855.019531 176.902344 1832.621094 189.105469 C 1805.527344 203.992188 1799.089844 238.058594 1805.261719 266.089844 C 1814.917969 309.542969 1869.234375 290.632812 1896.058594 275.878906 C 1907.324219 269.574219 1916.710938 259.25 1922.34375 247.714844 Z M 1922.34375 247.714844 " fill-opacity="1" fill-rule="nonzero"/><path fill="#89b9bc" d="M 1674.230469 98.578125 C 1679.863281 87.042969 1679.058594 73.230469 1666.585938 64.511719 C 1653.976562 55.796875 1635.066406 57.40625 1622.058594 64.511719 C 1606.234375 73.097656 1602.476562 92.945312 1606.097656 109.308594 C 1611.730469 134.519531 1643.382812 123.523438 1658.941406 114.941406 C 1665.511719 111.183594 1671.011719 105.285156 1674.230469 98.578125 Z M 1674.230469 98.578125 " fill-opacity="1" fill-rule="nonzero"/><path fill="#78a7bc" d="M 1580.214844 143.371094 C 1586.519531 127.949219 1586.117188 110.378906 1574.046875 92.945312 C 1563.449219 77.523438 1546.6875 68.535156 1530.1875 65.453125 C 1486.871094 57.269531 1452 102.332031 1460.449219 150.480469 C 1463.535156 168.453125 1474.800781 185.753906 1491.027344 190.984375 C 1520.53125 200.238281 1566.535156 176.769531 1580.214844 143.371094 Z M 1580.214844 143.371094 " fill-opacity="1" fill-rule="nonzero"/><path fill="#b0c4d0" d="M 1794.933594 990.539062 C 1812.367188 984.503906 1826.71875 970.554688 1832.082031 952.179688 C 1838.117188 931.527344 1832.21875 901.621094 1811.160156 892.097656 C 1802.308594 888.074219 1792.117188 888.207031 1782.59375 889.683594 C 1758.722656 893.4375 1713.527344 898.535156 1714.734375 931.660156 C 1715.402344 950.035156 1721.707031 968.273438 1736.191406 980.34375 C 1747.1875 989.464844 1761.40625 993.890625 1775.621094 993.890625 C 1782.191406 993.757812 1788.765625 992.683594 1794.933594 990.539062 Z M 1794.933594 990.539062 " fill-opacity="1" fill-rule="nonzero"/><path fill="#74a1ba" d="M 1711.648438 1146.113281 C 1734.179688 1140.882812 1747.1875 1114.058594 1742.496094 1092.464844 C 1740.484375 1083.480469 1735.65625 1074.898438 1728.011719 1069.667969 C 1715.269531 1060.949219 1697.03125 1062.289062 1682.679688 1065.644531 C 1665.914062 1069.53125 1647.539062 1082.140625 1645.394531 1100.648438 C 1644.054688 1112.316406 1650.757812 1123.582031 1659.476562 1131.359375 C 1673.15625 1143.5625 1693.542969 1150.269531 1711.648438 1146.113281 Z M 1711.648438 1146.113281 " fill-opacity="1" fill-rule="nonzero"/><path fill="#a6c1cb" d="M 1922.34375 1123.714844 C 1932 1104 1930.660156 1080.128906 1909.199219 1065.105469 C 1887.609375 1049.953125 1855.019531 1052.902344 1832.621094 1065.105469 C 1805.527344 1079.992188 1799.089844 1114.058594 1805.261719 1142.089844 C 1814.917969 1185.542969 1869.234375 1166.632812 1896.058594 1151.878906 C 1907.324219 1145.574219 1916.710938 1135.25 1922.34375 1123.714844 Z M 1922.34375 1123.714844 " fill-opacity="1" fill-rule="nonzero"/><path fill="#89b9bc" d="M 1674.230469 974.578125 C 1679.863281 963.042969 1679.058594 949.230469 1666.585938 940.511719 C 1653.976562 931.796875 1635.066406 933.40625 1622.058594 940.511719 C 1606.234375 949.097656 1602.476562 968.945312 1606.097656 985.308594 C 1611.730469 1010.519531 1643.382812 999.523438 1658.941406 990.941406 C 1665.511719 987.183594 1671.011719 981.285156 1674.230469 974.578125 Z M 1674.230469 974.578125 " fill-opacity="1" fill-rule="nonzero"/><path fill="#78a7bc" d="M 1580.214844 1019.371094 C 1586.519531 1003.949219 1586.117188 986.378906 1574.046875 968.945312 C 1563.449219 953.523438 1546.6875 944.535156 1530.1875 941.453125 C 1486.871094 933.269531 1452 978.332031 1460.449219 1026.480469 C 1463.535156 1044.453125 1474.800781 1061.753906 1491.027344 1066.984375 C 1520.53125 1076.238281 1566.535156 1052.769531 1580.214844 1019.371094 Z M 1580.214844 1019.371094 " fill-opacity="1" fill-rule="nonzero"/><path fill="#89b9bc" d="M 1375.554688 547.328125 C 1376.222656 547.464844 1376.894531 547.597656 1377.699219 547.597656 C 1386.550781 548.269531 1396.207031 543.304688 1401.574219 536.332031 C 1406.804688 529.625 1406.9375 521.3125 1407.070312 513.128906 C 1407.207031 501.730469 1407.472656 489.390625 1404.253906 478.394531 C 1402.511719 472.226562 1398.890625 465.652344 1392.855469 463.105469 C 1385.078125 459.753906 1376.359375 463.238281 1368.714844 466.726562 C 1363.617188 469.140625 1358.519531 471.6875 1354.632812 475.710938 C 1343.230469 487.246094 1340.011719 509.777344 1347.121094 524.128906 C 1351.816406 534.1875 1363.75 545.316406 1375.554688 547.328125 Z M 1375.554688 547.328125 " fill-opacity="1" fill-rule="nonzero"/><path fill="#b0c4d0" d="M 1390.976562 257.101562 C 1408.414062 251.066406 1422.761719 237.121094 1428.128906 218.746094 C 1434.164062 198.09375 1428.261719 168.183594 1407.207031 158.664062 C 1398.355469 154.640625 1388.160156 154.773438 1378.636719 156.25 C 1354.765625 160.003906 1309.570312 165.101562 1310.777344 198.226562 C 1311.445312 216.601562 1317.75 234.839844 1332.234375 246.910156 C 1343.230469 256.03125 1357.449219 260.457031 1371.664062 260.457031 C 1378.234375 260.320312 1384.808594 259.25 1390.976562 257.101562 Z M 1390.976562 257.101562 " fill-opacity="1" fill-rule="nonzero"/><g clip-path="url(#ff527bc902)"><path fill="#8cb6b8" d="M 1253.777344 583.003906 C 1272.820312 576.433594 1288.511719 561.144531 1294.414062 541.027344 C 1300.984375 518.496094 1294.546875 485.769531 1271.480469 475.175781 C 1261.824219 470.75 1250.691406 470.882812 1240.230469 472.492188 C 1214.078125 476.515625 1164.722656 482.148438 1166.066406 518.359375 C 1166.734375 538.476562 1173.710938 558.460938 1189.535156 571.605469 C 1201.605469 581.664062 1217.164062 586.492188 1232.585938 586.355469 C 1239.964844 586.492188 1247.070312 585.285156 1253.777344 583.003906 Z M 1253.777344 583.003906 " fill-opacity="1" fill-rule="nonzero"/></g><path fill="#74a1ba" d="M 1307.691406 412.675781 C 1330.222656 407.445312 1343.230469 380.625 1338.539062 359.03125 C 1336.527344 350.046875 1331.699219 341.460938 1324.054688 336.230469 C 1311.3125 327.515625 1293.074219 328.855469 1278.722656 332.207031 C 1261.957031 336.097656 1243.585938 348.703125 1241.4375 367.210938 C 1240.097656 378.878906 1246.804688 390.144531 1255.519531 397.925781 C 1269.199219 410.128906 1289.585938 416.835938 1307.691406 412.675781 Z M 1307.691406 412.675781 " fill-opacity="1" fill-rule="nonzero"/><path fill="#cbdad9" d="M 1189.265625 403.15625 C 1187.253906 391.753906 1182.023438 381.832031 1169.953125 379.015625 C 1155.871094 375.796875 1135.488281 379.417969 1126.5 391.488281 C 1113.359375 409.054688 1124.757812 440.839844 1145.007812 448.21875 C 1154.53125 451.707031 1170.625 449.023438 1178.671875 442.449219 C 1189.132812 434 1191.816406 417.371094 1189.265625 403.15625 Z M 1189.265625 403.15625 " fill-opacity="1" fill-rule="nonzero"/><path fill="#a6c1cb" d="M 1518.386719 390.28125 C 1528.042969 370.566406 1526.703125 346.691406 1505.242188 331.671875 C 1483.652344 316.515625 1451.0625 319.46875 1428.664062 331.671875 C 1401.574219 346.558594 1395.136719 380.625 1401.304688 408.652344 C 1410.960938 452.109375 1465.277344 433.195312 1492.101562 418.445312 C 1503.367188 412.140625 1512.753906 401.8125 1518.386719 390.28125 Z M 1518.386719 390.28125 " fill-opacity="1" fill-rule="nonzero"/><path fill="#89b9bc" d="M 1270.273438 241.144531 C 1275.90625 229.609375 1275.101562 215.796875 1262.628906 207.078125 C 1250.023438 198.359375 1231.113281 199.96875 1218.101562 207.078125 C 1202.277344 215.660156 1198.519531 235.511719 1202.140625 251.871094 C 1207.773438 277.085938 1239.425781 266.089844 1254.984375 257.503906 C 1261.554688 253.75 1267.054688 247.847656 1270.273438 241.144531 Z M 1270.273438 241.144531 " fill-opacity="1" fill-rule="nonzero"/><path fill="#78a7bc" d="M 1176.257812 285.9375 C 1182.5625 270.515625 1182.160156 252.945312 1170.089844 235.511719 C 1159.492188 220.085938 1142.730469 211.101562 1126.234375 208.015625 C 1082.914062 199.835938 1048.042969 244.898438 1056.492188 293.046875 C 1059.578125 311.019531 1070.84375 328.320312 1087.070312 333.550781 C 1116.578125 342.804688 1162.578125 319.332031 1176.257812 285.9375 Z M 1176.257812 285.9375 " fill-opacity="1" fill-rule="nonzero"/><path fill="#89b9bc" d="M 1375.554688 979.328125 C 1376.222656 979.464844 1376.894531 979.597656 1377.699219 979.597656 C 1386.550781 980.269531 1396.207031 975.304688 1401.574219 968.332031 C 1406.804688 961.625 1406.9375 953.3125 1407.070312 945.128906 C 1407.207031 933.730469 1407.472656 921.390625 1404.253906 910.394531 C 1402.511719 904.226562 1398.890625 897.652344 1392.855469 895.105469 C 1385.078125 891.753906 1376.359375 895.238281 1368.714844 898.726562 C 1363.617188 901.140625 1358.519531 903.6875 1354.632812 907.710938 C 1343.230469 919.246094 1340.011719 941.777344 1347.121094 956.128906 C 1351.816406 966.1875 1363.75 977.316406 1375.554688 979.328125 Z M 1375.554688 979.328125 " fill-opacity="1" fill-rule="nonzero"/><path fill="#b0c4d0" d="M 1390.976562 689.101562 C 1408.414062 683.066406 1422.761719 669.121094 1428.128906 650.746094 C 1434.164062 630.09375 1428.261719 600.183594 1407.207031 590.664062 C 1398.355469 586.640625 1388.160156 586.773438 1378.636719 588.25 C 1354.765625 592.003906 1309.570312 597.101562 1310.777344 630.226562 C 1311.445312 648.601562 1317.75 666.839844 1332.234375 678.910156 C 1343.230469 688.03125 1357.449219 692.457031 1371.664062 692.457031 C 1378.234375 692.320312 1384.808594 691.25 1390.976562 689.101562 Z M 1390.976562 689.101562 " fill-opacity="1" fill-rule="nonzero"/><g clip-path="url(#29aa512b55)"><path fill="#8cb6b8" d="M 1253.777344 1015.003906 C 1272.820312 1008.433594 1288.511719 993.144531 1294.414062 973.027344 C 1300.984375 950.496094 1294.546875 917.769531 1271.480469 907.175781 C 1261.824219 902.75 1250.691406 902.882812 1240.230469 904.492188 C 1214.078125 908.515625 1164.722656 914.148438 1166.066406 950.359375 C 1166.734375 970.476562 1173.710938 990.460938 1189.535156 1003.605469 C 1201.605469 1013.664062 1217.164062 1018.492188 1232.585938 1018.355469 C 1239.964844 1018.492188 1247.070312 1017.285156 1253.777344 1015.003906 Z M 1253.777344 1015.003906 " fill-opacity="1" fill-rule="nonzero"/></g><path fill="#74a1ba" d="M 1307.691406 844.675781 C 1330.222656 839.445312 1343.230469 812.625 1338.539062 791.03125 C 1336.527344 782.046875 1331.699219 773.460938 1324.054688 768.230469 C 1311.3125 759.515625 1293.074219 760.855469 1278.722656 764.207031 C 1261.957031 768.097656 1243.585938 780.703125 1241.4375 799.210938 C 1240.097656 810.878906 1246.804688 822.144531 1255.519531 829.925781 C 1269.199219 842.128906 1289.585938 848.835938 1307.691406 844.675781 Z M 1307.691406 844.675781 " fill-opacity="1" fill-rule="nonzero"/><path fill="#cbdad9" d="M 1189.265625 835.15625 C 1187.253906 823.753906 1182.023438 813.832031 1169.953125 811.015625 C 1155.871094 807.796875 1135.488281 811.417969 1126.5 823.488281 C 1113.359375 841.054688 1124.757812 872.839844 1145.007812 880.21875 C 1154.53125 883.703125 1170.625 881.023438 1178.671875 874.449219 C 1189.132812 866 1191.816406 849.371094 1189.265625 835.15625 Z M 1189.265625 835.15625 " fill-opacity="1" fill-rule="nonzero"/><path fill="#a6c1cb" d="M 1518.386719 822.28125 C 1528.042969 802.566406 1526.703125 778.691406 1505.242188 763.671875 C 1483.652344 748.515625 1451.0625 751.46875 1428.664062 763.671875 C 1401.574219 778.558594 1395.136719 812.625 1401.304688 840.652344 C 1410.960938 884.109375 1465.277344 865.195312 1492.101562 850.445312 C 1503.367188 844.140625 1512.753906 833.8125 1518.386719 822.28125 Z M 1518.386719 822.28125 " fill-opacity="1" fill-rule="nonzero"/><path fill="#89b9bc" d="M 1270.273438 673.144531 C 1275.90625 661.609375 1275.101562 647.796875 1262.628906 639.078125 C 1250.023438 630.359375 1231.113281 631.96875 1218.101562 639.078125 C 1202.277344 647.660156 1198.519531 667.511719 1202.140625 683.871094 C 1207.773438 709.085938 1239.425781 698.089844 1254.984375 689.503906 C 1261.554688 685.75 1267.054688 679.847656 1270.273438 673.144531 Z M 1270.273438 673.144531 " fill-opacity="1" fill-rule="nonzero"/><path fill="#78a7bc" d="M 1176.257812 717.9375 C 1182.5625 702.515625 1182.160156 684.945312 1170.089844 667.511719 C 1159.492188 652.085938 1142.730469 643.101562 1126.234375 640.015625 C 1082.914062 631.835938 1048.042969 676.898438 1056.492188 725.046875 C 1059.578125 743.019531 1070.84375 760.320312 1087.070312 765.550781 C 1116.578125 774.804688 1162.578125 751.332031 1176.257812 717.9375 Z M 1176.257812 717.9375 " fill-opacity="1" fill-rule="nonzero"/><path fill="#b0c4d0" d="M 1390.976562 1121.101562 C 1408.414062 1115.066406 1422.761719 1101.121094 1428.128906 1082.746094 C 1434.164062 1062.09375 1428.261719 1032.183594 1407.207031 1022.664062 C 1398.355469 1018.640625 1388.160156 1018.773438 1378.636719 1020.25 C 1354.765625 1024.003906 1309.570312 1029.101562 1310.777344 1062.226562 C 1311.445312 1080.601562 1317.75 1098.839844 1332.234375 1110.910156 C 1343.230469 1120.03125 1357.449219 1124.457031 1371.664062 1124.457031 C 1378.234375 1124.320312 1384.808594 1123.25 1390.976562 1121.101562 Z M 1390.976562 1121.101562 " fill-opacity="1" fill-rule="nonzero"/><path fill="#89b9bc" d="M 1270.273438 1105.144531 C 1275.90625 1093.609375 1275.101562 1079.796875 1262.628906 1071.078125 C 1250.023438 1062.359375 1231.113281 1063.96875 1218.101562 1071.078125 C 1202.277344 1079.660156 1198.519531 1099.511719 1202.140625 1115.871094 C 1207.773438 1141.085938 1239.425781 1130.089844 1254.984375 1121.503906 C 1261.554688 1117.75 1267.054688 1111.847656 1270.273438 1105.144531 Z M 1270.273438 1105.144531 " fill-opacity="1" fill-rule="nonzero"/><path fill="#78a7bc" d="M 1176.257812 1149.9375 C 1182.5625 1134.515625 1182.160156 1116.945312 1170.089844 1099.511719 C 1159.492188 1084.085938 1142.730469 1075.101562 1126.234375 1072.015625 C 1082.914062 1063.835938 1048.042969 1108.898438 1056.492188 1157.046875 C 1059.578125 1175.019531 1070.84375 1192.320312 1087.070312 1197.550781 C 1116.578125 1206.804688 1162.578125 1183.332031 1176.257812 1149.9375 Z M 1176.257812 1149.9375 " fill-opacity="1" fill-rule="nonzero"/><path fill="#89b9bc" d="M 1299.511719 115.328125 C 1300.179688 115.464844 1300.851562 115.597656 1301.65625 115.597656 C 1310.507812 116.269531 1320.164062 111.304688 1325.527344 104.332031 C 1330.757812 97.625 1330.894531 89.3125 1331.027344 81.128906 C 1331.160156 69.730469 1331.429688 57.390625 1328.210938 46.394531 C 1326.46875 40.226562 1322.847656 33.652344 1316.8125 31.105469 C 1309.03125 27.753906 1300.316406 31.238281 1292.671875 34.726562 C 1287.574219 37.140625 1282.476562 39.6875 1278.589844 43.710938 C 1267.1875 55.246094 1263.96875 77.777344 1271.078125 92.128906 C 1275.773438 102.1875 1287.707031 113.316406 1299.511719 115.328125 Z M 1299.511719 115.328125 " fill-opacity="1" fill-rule="nonzero"/><g clip-path="url(#135db68e13)"><path fill="#8cb6b8" d="M 1177.734375 151.003906 C 1196.777344 144.433594 1212.46875 129.144531 1218.371094 109.027344 C 1224.941406 86.496094 1218.503906 53.769531 1195.4375 43.175781 C 1185.78125 38.75 1174.648438 38.882812 1164.1875 40.492188 C 1138.035156 44.515625 1088.679688 50.148438 1090.023438 86.359375 C 1090.691406 106.476562 1097.667969 126.460938 1113.492188 139.605469 C 1125.5625 149.664062 1141.121094 154.492188 1156.542969 154.355469 C 1163.917969 154.492188 1171.027344 153.285156 1177.734375 151.003906 Z M 1177.734375 151.003906 " fill-opacity="1" fill-rule="nonzero"/></g><path fill="#cbdad9" d="M 1113.222656 -28.84375 C 1111.210938 -40.246094 1105.980469 -50.167969 1093.910156 -52.984375 C 1079.828125 -56.203125 1059.445312 -52.582031 1050.457031 -40.511719 C 1037.3125 -22.945312 1048.714844 8.84375 1068.964844 16.21875 C 1078.488281 19.707031 1094.582031 17.023438 1102.628906 10.453125 C 1113.089844 2 1115.773438 -14.628906 1113.222656 -28.84375 Z M 1113.222656 -28.84375 " fill-opacity="1" fill-rule="nonzero"/><path fill="#a6c1cb" d="M 1442.34375 -41.71875 C 1452 -61.433594 1450.660156 -85.308594 1429.199219 -100.328125 C 1407.609375 -115.484375 1375.015625 -112.53125 1352.621094 -100.328125 C 1325.527344 -85.441406 1319.089844 -51.375 1325.261719 -23.347656 C 1334.917969 20.109375 1389.234375 1.195312 1416.058594 -13.554688 C 1427.324219 -19.859375 1436.710938 -30.1875 1442.34375 -41.71875 Z M 1442.34375 -41.71875 " fill-opacity="1" fill-rule="nonzero"/><path fill="#89b9bc" d="M 929.726562 331.328125 C 930.398438 331.464844 931.070312 331.597656 931.875 331.597656 C 940.726562 332.269531 950.382812 327.304688 955.746094 320.332031 C 960.976562 313.625 961.109375 305.3125 961.246094 297.128906 C 961.378906 285.730469 961.648438 273.390625 958.429688 262.394531 C 956.683594 256.226562 953.0625 249.652344 947.027344 247.105469 C 939.25 243.753906 930.53125 247.238281 922.886719 250.726562 C 917.792969 253.140625 912.695312 255.6875 908.804688 259.710938 C 897.40625 271.246094 894.1875 293.777344 901.296875 308.128906 C 905.988281 318.1875 917.925781 329.316406 929.726562 331.328125 Z M 929.726562 331.328125 " fill-opacity="1" fill-rule="nonzero"/><path fill="#b0c4d0" d="M 945.152344 41.101562 C 962.585938 35.066406 976.9375 21.121094 982.300781 2.746094 C 988.335938 -17.90625 982.433594 -47.816406 961.378906 -57.335938 C 952.527344 -61.359375 942.335938 -61.226562 932.8125 -59.75 C 908.941406 -55.996094 863.742188 -50.898438 864.949219 -17.773438 C 865.621094 0.601562 871.925781 18.839844 886.410156 30.910156 C 897.40625 40.03125 911.621094 44.457031 925.839844 44.457031 C 932.410156 44.320312 938.980469 43.25 945.152344 41.101562 Z M 945.152344 41.101562 " fill-opacity="1" fill-rule="nonzero"/><g clip-path="url(#2334ac69db)"><path fill="#8cb6b8" d="M 807.949219 367.003906 C 826.996094 360.433594 842.6875 345.144531 848.585938 325.027344 C 855.160156 302.496094 848.722656 269.769531 825.652344 259.175781 C 815.996094 254.75 804.867188 254.882812 794.40625 256.492188 C 768.253906 260.515625 718.898438 266.148438 720.238281 302.359375 C 720.910156 322.476562 727.882812 342.460938 743.710938 355.605469 C 755.78125 365.664062 771.335938 370.492188 786.761719 370.355469 C 794.136719 370.492188 801.246094 369.285156 807.949219 367.003906 Z M 807.949219 367.003906 " fill-opacity="1" fill-rule="nonzero"/></g><path fill="#74a1ba" d="M 861.867188 196.675781 C 884.398438 191.445312 897.40625 164.625 892.710938 143.03125 C 890.699219 134.046875 885.871094 125.460938 878.226562 120.230469 C 865.488281 111.515625 847.246094 112.855469 832.894531 116.207031 C 816.132812 120.097656 797.757812 132.703125 795.613281 151.210938 C 794.269531 162.878906 800.976562 174.144531 809.695312 181.925781 C 823.375 194.128906 843.757812 200.835938 861.867188 196.675781 Z M 861.867188 196.675781 " fill-opacity="1" fill-rule="nonzero"/><path fill="#cbdad9" d="M 743.441406 187.15625 C 741.429688 175.753906 736.199219 165.832031 724.128906 163.015625 C 710.046875 159.796875 689.660156 163.417969 680.675781 175.488281 C 667.53125 193.054688 678.929688 224.839844 699.183594 232.21875 C 708.707031 235.707031 724.800781 233.023438 732.847656 226.449219 C 743.308594 218 745.988281 201.371094 743.441406 187.15625 Z M 743.441406 187.15625 " fill-opacity="1" fill-rule="nonzero"/><path fill="#a6c1cb" d="M 1072.5625 174.28125 C 1082.21875 154.566406 1080.875 130.691406 1059.417969 115.671875 C 1037.824219 100.515625 1005.234375 103.46875 982.835938 115.671875 C 955.746094 130.558594 949.308594 164.625 955.476562 192.652344 C 965.132812 236.109375 1019.453125 217.195312 1046.273438 202.445312 C 1057.539062 196.140625 1066.929688 185.8125 1072.5625 174.28125 Z M 1072.5625 174.28125 " fill-opacity="1" fill-rule="nonzero"/><path fill="#89b9bc" d="M 824.445312 25.144531 C 830.078125 13.609375 829.273438 -0.203125 816.800781 -8.921875 C 804.195312 -17.640625 785.285156 -16.03125 772.277344 -8.921875 C 756.449219 -0.339844 752.695312 19.511719 756.316406 35.871094 C 761.949219 61.085938 793.601562 50.089844 809.15625 41.503906 C 815.730469 37.75 821.226562 31.847656 824.445312 25.144531 Z M 824.445312 25.144531 " fill-opacity="1" fill-rule="nonzero"/><path fill="#78a7bc" d="M 730.433594 69.9375 C 736.734375 54.515625 736.332031 36.945312 724.261719 19.511719 C 713.667969 4.085938 696.902344 -4.898438 680.40625 -7.984375 C 637.085938 -16.164062 602.21875 28.898438 610.667969 77.046875 C 613.75 95.019531 625.015625 112.320312 641.246094 117.550781 C 670.75 126.804688 716.753906 103.332031 730.433594 69.9375 Z M 730.433594 69.9375 " fill-opacity="1" fill-rule="nonzero"/><path fill="#89b9bc" d="M 988.421875 737.375 C 989.09375 737.507812 989.765625 737.640625 990.570312 737.640625 C 999.421875 738.3125 1009.078125 733.351562 1014.441406 726.375 C 1019.671875 719.667969 1019.804688 711.355469 1019.941406 703.171875 C 1020.074219 691.773438 1020.34375 679.433594 1017.125 668.4375 C 1015.378906 662.269531 1011.757812 655.695312 1005.722656 653.148438 C 997.945312 649.796875 989.226562 653.28125 981.582031 656.769531 C 976.488281 659.183594 971.390625 661.730469 967.5 665.753906 C 956.101562 677.289062 952.882812 699.820312 959.992188 714.171875 C 964.683594 724.230469 976.621094 735.363281 988.421875 737.375 Z M 988.421875 737.375 " fill-opacity="1" fill-rule="nonzero"/><path fill="#b0c4d0" d="M 1003.847656 447.148438 C 1021.28125 441.113281 1035.632812 427.164062 1040.996094 408.789062 C 1047.03125 388.136719 1041.132812 358.226562 1020.074219 348.707031 C 1011.222656 344.683594 1001.03125 344.816406 991.507812 346.292969 C 967.636719 350.046875 922.4375 355.144531 923.644531 388.269531 C 924.316406 406.644531 930.621094 424.882812 945.105469 436.953125 C 956.101562 446.074219 970.316406 450.5 984.535156 450.5 C 991.105469 450.367188 997.675781 449.292969 1003.847656 447.148438 Z M 1003.847656 447.148438 " fill-opacity="1" fill-rule="nonzero"/><g clip-path="url(#156644a4c2)"><path fill="#8cb6b8" d="M 866.648438 773.046875 C 885.691406 766.476562 901.382812 751.1875 907.285156 731.070312 C 913.855469 708.539062 907.417969 675.8125 884.351562 665.21875 C 874.695312 660.792969 863.5625 660.925781 853.101562 662.535156 C 826.949219 666.558594 777.59375 672.191406 778.933594 708.402344 C 779.605469 728.523438 786.578125 748.503906 802.40625 761.648438 C 814.476562 771.707031 830.03125 776.535156 845.457031 776.402344 C 852.832031 776.535156 859.941406 775.328125 866.648438 773.046875 Z M 866.648438 773.046875 " fill-opacity="1" fill-rule="nonzero"/></g><path fill="#74a1ba" d="M 920.5625 602.722656 C 943.09375 597.492188 956.101562 570.667969 951.40625 549.074219 C 949.394531 540.089844 944.566406 531.503906 936.921875 526.273438 C 924.183594 517.558594 905.941406 518.898438 891.59375 522.25 C 874.828125 526.140625 856.453125 538.746094 854.308594 557.253906 C 852.964844 568.925781 859.671875 580.191406 868.390625 587.96875 C 882.070312 600.171875 902.457031 606.878906 920.5625 602.722656 Z M 920.5625 602.722656 " fill-opacity="1" fill-rule="nonzero"/><path fill="#cbdad9" d="M 802.136719 593.199219 C 800.125 581.800781 794.894531 571.875 782.824219 569.058594 C 768.742188 565.839844 748.355469 569.460938 739.371094 581.53125 C 726.226562 599.101562 737.628906 630.886719 757.878906 638.261719 C 767.402344 641.75 783.496094 639.066406 791.542969 632.496094 C 802.003906 624.046875 804.683594 607.414062 802.136719 593.199219 Z M 802.136719 593.199219 " fill-opacity="1" fill-rule="nonzero"/><path fill="#a6c1cb" d="M 1131.257812 580.324219 C 1140.914062 560.609375 1139.570312 536.734375 1118.113281 521.714844 C 1096.519531 506.558594 1063.929688 509.511719 1041.535156 521.714844 C 1014.441406 536.601562 1008.003906 570.667969 1014.171875 598.699219 C 1023.832031 642.152344 1078.148438 623.242188 1104.96875 608.488281 C 1116.234375 602.183594 1125.625 591.859375 1131.257812 580.324219 Z M 1131.257812 580.324219 " fill-opacity="1" fill-rule="nonzero"/><path fill="#89b9bc" d="M 883.144531 431.1875 C 888.777344 419.652344 887.972656 405.839844 875.5 397.121094 C 862.890625 388.402344 843.980469 390.011719 830.972656 397.121094 C 815.144531 405.703125 811.390625 425.554688 815.011719 441.917969 C 820.644531 467.128906 852.296875 456.132812 867.855469 447.550781 C 874.425781 443.792969 879.925781 437.894531 883.144531 431.1875 Z M 883.144531 431.1875 " fill-opacity="1" fill-rule="nonzero"/><path fill="#78a7bc" d="M 789.128906 475.980469 C 795.429688 460.558594 795.027344 442.988281 782.957031 425.554688 C 772.363281 410.128906 755.597656 401.144531 739.101562 398.058594 C 695.78125 389.878906 660.914062 434.941406 669.363281 483.089844 C 672.445312 501.0625 683.710938 518.363281 699.941406 523.59375 C 729.445312 532.847656 775.449219 509.375 789.128906 475.980469 Z M 789.128906 475.980469 " fill-opacity="1" fill-rule="nonzero"/><path fill="#b0c4d0" d="M 1003.847656 879.148438 C 1021.28125 873.113281 1035.632812 859.164062 1040.996094 840.789062 C 1047.03125 820.136719 1041.132812 790.226562 1020.074219 780.707031 C 1011.222656 776.683594 1001.03125 776.816406 991.507812 778.292969 C 967.636719 782.046875 922.4375 787.144531 923.644531 820.269531 C 924.316406 838.644531 930.621094 856.882812 945.105469 868.953125 C 956.101562 878.074219 970.316406 882.5 984.535156 882.5 C 991.105469 882.367188 997.675781 881.292969 1003.847656 879.148438 Z M 1003.847656 879.148438 " fill-opacity="1" fill-rule="nonzero"/><path fill="#74a1ba" d="M 920.5625 1034.722656 C 943.09375 1029.492188 956.101562 1002.667969 951.40625 981.074219 C 949.394531 972.089844 944.566406 963.503906 936.921875 958.273438 C 924.183594 949.558594 905.941406 950.898438 891.59375 954.25 C 874.828125 958.140625 856.453125 970.746094 854.308594 989.253906 C 852.964844 1000.921875 859.671875 1012.191406 868.390625 1019.96875 C 882.070312 1032.171875 902.457031 1038.878906 920.5625 1034.722656 Z M 920.5625 1034.722656 " fill-opacity="1" fill-rule="nonzero"/><path fill="#cbdad9" d="M 802.136719 1025.199219 C 800.125 1013.800781 794.894531 1003.875 782.824219 1001.058594 C 768.742188 997.839844 748.355469 1001.460938 739.371094 1013.53125 C 726.226562 1031.101562 737.628906 1062.886719 757.878906 1070.261719 C 767.402344 1073.75 783.496094 1071.066406 791.542969 1064.496094 C 802.003906 1056.046875 804.683594 1039.414062 802.136719 1025.199219 Z M 802.136719 1025.199219 " fill-opacity="1" fill-rule="nonzero"/><path fill="#a6c1cb" d="M 1131.257812 1012.324219 C 1140.914062 992.609375 1139.570312 968.734375 1118.113281 953.714844 C 1096.519531 938.558594 1063.929688 941.511719 1041.535156 953.714844 C 1014.441406 968.601562 1008.003906 1002.667969 1014.171875 1030.699219 C 1023.832031 1074.152344 1078.148438 1055.242188 1104.96875 1040.488281 C 1116.234375 1034.183594 1125.625 1023.859375 1131.257812 1012.324219 Z M 1131.257812 1012.324219 " fill-opacity="1" fill-rule="nonzero"/><path fill="#89b9bc" d="M 883.144531 863.1875 C 888.777344 851.652344 887.972656 837.839844 875.5 829.121094 C 862.890625 820.402344 843.980469 822.011719 830.972656 829.121094 C 815.144531 837.703125 811.390625 857.554688 815.011719 873.917969 C 820.644531 899.128906 852.296875 888.132812 867.855469 879.550781 C 874.425781 875.792969 879.925781 869.894531 883.144531 863.1875 Z M 883.144531 863.1875 " fill-opacity="1" fill-rule="nonzero"/><path fill="#78a7bc" d="M 789.128906 907.980469 C 795.429688 892.558594 795.027344 874.988281 782.957031 857.554688 C 772.363281 842.128906 755.597656 833.144531 739.101562 830.058594 C 695.78125 821.878906 660.914062 866.941406 669.363281 915.089844 C 672.445312 933.0625 683.710938 950.363281 699.941406 955.59375 C 729.445312 964.847656 775.449219 941.375 789.128906 907.980469 Z M 789.128906 907.980469 " fill-opacity="1" fill-rule="nonzero"/><path fill="#89b9bc" d="M 550.164062 500.765625 C 550.832031 500.898438 551.503906 501.03125 552.308594 501.03125 C 561.160156 501.703125 570.816406 496.742188 576.179688 489.765625 C 581.410156 483.0625 581.546875 474.746094 581.679688 466.566406 C 581.8125 455.164062 582.082031 442.828125 578.863281 431.828125 C 577.121094 425.660156 573.5 419.089844 567.464844 416.539062 C 559.683594 413.1875 550.96875 416.675781 543.324219 420.160156 C 538.226562 422.574219 533.128906 425.125 529.242188 429.148438 C 517.839844 440.679688 514.621094 463.210938 521.730469 477.5625 C 526.425781 487.621094 538.359375 498.753906 550.164062 500.765625 Z M 550.164062 500.765625 " fill-opacity="1" fill-rule="nonzero"/><path fill="#b0c4d0" d="M 565.585938 210.539062 C 583.019531 204.503906 597.371094 190.554688 602.734375 172.179688 C 608.769531 151.527344 602.871094 121.621094 581.8125 112.097656 C 572.960938 108.074219 562.769531 108.207031 553.246094 109.683594 C 529.375 113.4375 484.179688 118.535156 485.386719 151.660156 C 486.054688 170.035156 492.359375 188.273438 506.84375 200.34375 C 517.839844 209.464844 532.058594 213.890625 546.273438 213.890625 C 552.84375 213.757812 559.417969 212.683594 565.585938 210.539062 Z M 565.585938 210.539062 " fill-opacity="1" fill-rule="nonzero"/><path fill="#8cb6b8" d="M 428.386719 536.4375 C 447.429688 529.867188 463.121094 514.578125 469.023438 494.460938 C 475.59375 471.929688 469.15625 439.207031 446.089844 428.609375 C 436.433594 424.183594 425.300781 424.320312 414.839844 425.929688 C 388.6875 429.953125 339.332031 435.585938 340.675781 471.796875 C 341.34375 491.914062 348.320312 511.894531 364.144531 525.039062 C 376.214844 535.097656 391.773438 539.925781 407.195312 539.792969 C 414.570312 539.925781 421.679688 538.71875 428.386719 536.4375 Z M 428.386719 536.4375 " fill-opacity="1" fill-rule="nonzero"/><path fill="#74a1ba" d="M 482.300781 366.113281 C 504.832031 360.882812 517.839844 334.058594 513.148438 312.464844 C 511.136719 303.480469 506.308594 294.898438 498.664062 289.667969 C 485.921875 280.949219 467.679688 282.289062 453.332031 285.644531 C 436.566406 289.53125 418.191406 302.140625 416.046875 320.648438 C 414.707031 332.316406 421.410156 343.582031 430.128906 351.359375 C 443.808594 363.5625 464.195312 370.269531 482.300781 366.113281 Z M 482.300781 366.113281 " fill-opacity="1" fill-rule="nonzero"/><path fill="#cbdad9" d="M 363.875 356.589844 C 361.863281 345.191406 356.632812 335.265625 344.5625 332.449219 C 330.480469 329.230469 310.09375 332.851562 301.109375 344.921875 C 287.964844 362.492188 299.367188 394.277344 319.617188 401.652344 C 329.140625 405.140625 345.234375 402.457031 353.28125 395.886719 C 363.742188 387.4375 366.425781 370.804688 363.875 356.589844 Z M 363.875 356.589844 " fill-opacity="1" fill-rule="nonzero"/><path fill="#a6c1cb" d="M 692.996094 343.714844 C 702.652344 324 701.3125 300.128906 679.851562 285.105469 C 658.261719 269.953125 625.667969 272.902344 603.273438 285.105469 C 576.179688 299.992188 569.742188 334.058594 575.914062 362.089844 C 585.570312 405.542969 639.886719 386.632812 666.710938 371.878906 C 677.976562 365.574219 687.363281 355.25 692.996094 343.714844 Z M 692.996094 343.714844 " fill-opacity="1" fill-rule="nonzero"/><path fill="#89b9bc" d="M 444.882812 194.578125 C 450.515625 183.042969 449.710938 169.230469 437.238281 160.511719 C 424.628906 151.796875 405.71875 153.40625 392.710938 160.511719 C 376.886719 169.097656 373.128906 188.945312 376.75 205.308594 C 382.382812 230.519531 414.035156 219.523438 429.59375 210.941406 C 436.164062 207.183594 441.664062 201.285156 444.882812 194.578125 Z M 444.882812 194.578125 " fill-opacity="1" fill-rule="nonzero"/><path fill="#78a7bc" d="M 350.867188 239.371094 C 357.171875 223.949219 356.769531 206.378906 344.699219 188.945312 C 334.101562 173.523438 317.335938 164.535156 300.839844 161.453125 C 257.523438 153.269531 222.652344 198.332031 231.101562 246.480469 C 234.1875 264.453125 245.453125 281.753906 261.679688 286.984375 C 291.183594 296.238281 337.1875 272.769531 350.867188 239.371094 Z M 350.867188 239.371094 " fill-opacity="1" fill-rule="nonzero"/><path fill="#89b9bc" d="M 508.421875 81.9375 C 509.09375 82.074219 509.765625 82.207031 510.570312 82.207031 C 519.421875 82.878906 529.078125 77.914062 534.441406 70.941406 C 539.671875 64.234375 539.804688 55.921875 539.941406 47.738281 C 540.074219 36.339844 540.34375 24 537.125 13.003906 C 535.378906 6.832031 531.757812 0.261719 525.722656 -2.285156 C 517.945312 -5.640625 509.226562 -2.152344 501.582031 1.335938 C 496.488281 3.75 491.390625 6.296875 487.5 10.320312 C 476.101562 21.855469 472.882812 44.386719 479.992188 58.738281 C 484.683594 68.796875 496.621094 79.925781 508.421875 81.9375 Z M 508.421875 81.9375 " fill-opacity="1" fill-rule="nonzero"/><path fill="#8cb6b8" d="M 386.648438 117.613281 C 405.691406 111.042969 421.382812 95.753906 427.285156 75.636719 C 433.855469 53.105469 427.417969 20.378906 404.351562 9.785156 C 394.695312 5.359375 383.5625 5.492188 373.101562 7.101562 C 346.949219 11.125 297.59375 16.757812 298.933594 52.96875 C 299.605469 73.085938 306.578125 93.070312 322.40625 106.214844 C 334.476562 116.273438 350.03125 121.101562 365.457031 120.964844 C 372.832031 121.101562 379.941406 119.894531 386.648438 117.613281 Z M 386.648438 117.613281 " fill-opacity="1" fill-rule="nonzero"/><path fill="#89b9bc" d="M 618.640625 909.546875 C 619.3125 909.679688 619.980469 909.816406 620.785156 909.816406 C 629.636719 910.484375 639.292969 905.523438 644.660156 898.550781 C 649.890625 891.84375 650.023438 883.527344 650.15625 875.347656 C 650.292969 863.949219 650.558594 851.609375 647.339844 840.613281 C 645.597656 834.441406 641.976562 827.871094 635.941406 825.324219 C 628.164062 821.96875 619.445312 825.457031 611.800781 828.945312 C 606.703125 831.359375 601.609375 833.90625 597.71875 837.929688 C 586.320312 849.464844 583.101562 871.996094 590.207031 886.34375 C 594.902344 896.402344 606.839844 907.535156 618.640625 909.546875 Z M 618.640625 909.546875 " fill-opacity="1" fill-rule="nonzero"/><path fill="#b0c4d0" d="M 634.0625 619.320312 C 651.5 613.285156 665.851562 599.335938 671.214844 580.964844 C 677.25 560.308594 671.347656 530.402344 650.292969 520.878906 C 641.441406 516.855469 631.246094 516.992188 621.726562 518.464844 C 597.851562 522.222656 552.65625 527.316406 553.863281 560.445312 C 554.535156 578.816406 560.835938 597.058594 575.320312 609.128906 C 586.320312 618.246094 600.535156 622.671875 614.75 622.671875 C 621.324219 622.539062 627.894531 621.464844 634.0625 619.320312 Z M 634.0625 619.320312 " fill-opacity="1" fill-rule="nonzero"/><g clip-path="url(#640a6eed55)"><path fill="#8cb6b8" d="M 496.863281 945.222656 C 515.910156 938.648438 531.601562 923.359375 537.5 903.242188 C 544.074219 880.710938 537.636719 847.988281 514.566406 837.394531 C 504.910156 832.96875 493.777344 833.101562 483.316406 834.710938 C 457.164062 838.734375 407.8125 844.367188 409.152344 880.578125 C 409.824219 900.695312 416.796875 920.679688 432.621094 933.820312 C 444.691406 943.878906 460.25 948.707031 475.671875 948.574219 C 483.050781 948.707031 490.15625 947.5 496.863281 945.222656 Z M 496.863281 945.222656 " fill-opacity="1" fill-rule="nonzero"/></g><path fill="#74a1ba" d="M 550.777344 774.894531 C 573.308594 769.664062 586.320312 742.839844 581.625 721.25 C 579.613281 712.261719 574.785156 703.679688 567.140625 698.449219 C 554.398438 689.730469 536.160156 691.074219 521.808594 694.425781 C 505.046875 698.316406 486.671875 710.921875 484.523438 729.429688 C 483.183594 741.097656 489.890625 752.363281 498.605469 760.140625 C 512.289062 772.347656 532.671875 779.050781 550.777344 774.894531 Z M 550.777344 774.894531 " fill-opacity="1" fill-rule="nonzero"/><path fill="#cbdad9" d="M 432.355469 765.371094 C 430.34375 753.972656 425.113281 744.046875 413.042969 741.230469 C 398.960938 738.011719 378.574219 741.632812 369.589844 753.703125 C 356.445312 771.273438 367.84375 803.058594 388.097656 810.433594 C 397.617188 813.921875 413.710938 811.238281 421.757812 804.667969 C 432.21875 796.21875 434.902344 779.589844 432.355469 765.371094 Z M 432.355469 765.371094 " fill-opacity="1" fill-rule="nonzero"/><path fill="#a6c1cb" d="M 761.472656 752.496094 C 771.128906 732.78125 769.789062 708.910156 748.332031 693.890625 C 726.738281 678.734375 694.148438 681.683594 671.75 693.890625 C 644.660156 708.777344 638.222656 742.839844 644.390625 770.871094 C 654.046875 814.324219 708.363281 795.414062 735.1875 780.660156 C 746.453125 774.359375 755.839844 764.03125 761.472656 752.496094 Z M 761.472656 752.496094 " fill-opacity="1" fill-rule="nonzero"/><path fill="#89b9bc" d="M 513.359375 603.359375 C 518.992188 591.828125 518.1875 578.011719 505.714844 569.296875 C 493.109375 560.578125 474.199219 562.1875 461.1875 569.296875 C 445.363281 577.878906 441.609375 597.726562 445.230469 614.089844 C 450.863281 639.304688 482.511719 628.304688 498.070312 619.722656 C 504.644531 615.96875 510.140625 610.066406 513.359375 603.359375 Z M 513.359375 603.359375 " fill-opacity="1" fill-rule="nonzero"/><path fill="#78a7bc" d="M 419.34375 648.15625 C 425.648438 632.730469 425.246094 615.164062 413.175781 597.726562 C 402.582031 582.304688 385.816406 573.320312 369.320312 570.234375 C 326 562.054688 291.128906 607.117188 299.578125 655.265625 C 302.664062 673.234375 313.929688 690.535156 330.15625 695.765625 C 359.664062 705.019531 405.664062 681.550781 419.34375 648.15625 Z M 419.34375 648.15625 " fill-opacity="1" fill-rule="nonzero"/><path fill="#b0c4d0" d="M 634.0625 1051.320312 C 651.5 1045.285156 665.851562 1031.335938 671.214844 1012.964844 C 677.25 992.308594 671.347656 962.402344 650.292969 952.878906 C 641.441406 948.855469 631.246094 948.992188 621.726562 950.464844 C 597.851562 954.222656 552.65625 959.316406 553.863281 992.445312 C 554.535156 1010.816406 560.835938 1029.058594 575.320312 1041.128906 C 586.320312 1050.246094 600.535156 1054.671875 614.75 1054.671875 C 621.324219 1054.539062 627.894531 1053.464844 634.0625 1051.320312 Z M 634.0625 1051.320312 " fill-opacity="1" fill-rule="nonzero"/><path fill="#89b9bc" d="M 513.359375 1035.359375 C 518.992188 1023.828125 518.1875 1010.011719 505.714844 1001.296875 C 493.109375 992.578125 474.199219 994.1875 461.1875 1001.296875 C 445.363281 1009.878906 441.609375 1029.726562 445.230469 1046.089844 C 450.863281 1071.304688 482.511719 1060.304688 498.070312 1051.722656 C 504.644531 1047.96875 510.140625 1042.066406 513.359375 1035.359375 Z M 513.359375 1035.359375 " fill-opacity="1" fill-rule="nonzero"/><path fill="#78a7bc" d="M 419.34375 1080.15625 C 425.648438 1064.730469 425.246094 1047.164062 413.175781 1029.726562 C 402.582031 1014.304688 385.816406 1005.320312 369.320312 1002.234375 C 326 994.054688 291.128906 1039.117188 299.578125 1087.261719 C 302.664062 1105.234375 313.929688 1122.535156 330.15625 1127.765625 C 359.664062 1137.019531 405.664062 1113.550781 419.34375 1080.15625 Z M 419.34375 1080.15625 " fill-opacity="1" fill-rule="nonzero"/><path fill="#89b9bc" d="M 115.816406 258.023438 C 116.484375 258.160156 117.15625 258.292969 117.960938 258.292969 C 126.8125 258.964844 136.46875 254 141.832031 247.027344 C 147.0625 240.320312 147.199219 232.007812 147.332031 223.824219 C 147.464844 212.425781 147.734375 200.085938 144.515625 189.089844 C 142.773438 182.921875 139.152344 176.347656 133.117188 173.800781 C 125.335938 170.449219 116.621094 173.933594 108.976562 177.421875 C 103.878906 179.835938 98.78125 182.382812 94.894531 186.40625 C 83.492188 197.941406 80.273438 220.472656 87.382812 234.824219 C 92.078125 244.882812 104.011719 256.011719 115.816406 258.023438 Z M 115.816406 258.023438 " fill-opacity="1" fill-rule="nonzero"/><g clip-path="url(#ec1b9d1350)"><path fill="#8cb6b8" d="M -5.960938 293.699219 C 13.082031 287.128906 28.773438 271.839844 34.675781 251.722656 C 41.246094 229.191406 34.808594 196.464844 11.742188 185.871094 C 2.085938 181.445312 -9.046875 181.578125 -19.507812 183.1875 C -45.660156 187.210938 -95.015625 192.84375 -93.675781 229.054688 C -93.003906 249.171875 -86.027344 269.15625 -70.203125 282.300781 C -58.132812 292.359375 -42.574219 297.1875 -27.152344 297.054688 C -19.777344 297.1875 -12.667969 295.980469 -5.960938 293.699219 Z M -5.960938 293.699219 " fill-opacity="1" fill-rule="nonzero"/></g><path fill="#74a1ba" d="M 47.953125 123.375 C 70.484375 118.144531 83.492188 91.320312 78.800781 69.726562 C 76.789062 60.742188 71.960938 52.15625 64.316406 46.925781 C 51.574219 38.210938 33.332031 39.550781 18.984375 42.902344 C 2.21875 46.792969 -16.15625 59.398438 -18.300781 77.90625 C -19.640625 89.574219 -12.9375 100.839844 -4.21875 108.621094 C 9.460938 120.824219 29.847656 127.53125 47.953125 123.375 Z M 47.953125 123.375 " fill-opacity="1" fill-rule="nonzero"/><path fill="#a6c1cb" d="M 258.648438 100.976562 C 268.304688 81.261719 266.964844 57.386719 245.503906 42.367188 C 223.910156 27.210938 191.320312 30.164062 168.925781 42.367188 C 141.832031 57.253906 135.394531 91.320312 141.566406 119.351562 C 151.222656 162.804688 205.539062 143.894531 232.363281 129.140625 C 243.628906 122.835938 253.015625 112.511719 258.648438 100.976562 Z M 258.648438 100.976562 " fill-opacity="1" fill-rule="nonzero"/><path fill="#89b9bc" d="M 176.46875 664.980469 C 177.136719 665.117188 177.808594 665.25 178.613281 665.25 C 187.464844 665.921875 197.121094 660.957031 202.484375 653.984375 C 207.714844 647.277344 207.851562 638.964844 207.984375 630.78125 C 208.117188 619.382812 208.386719 607.042969 205.167969 596.046875 C 203.425781 589.878906 199.804688 583.304688 193.769531 580.757812 C 185.988281 577.40625 177.273438 580.890625 169.628906 584.378906 C 164.53125 586.792969 159.433594 589.339844 155.546875 593.363281 C 144.144531 604.898438 140.925781 627.429688 148.035156 641.78125 C 152.730469 651.839844 164.664062 662.96875 176.46875 664.980469 Z M 176.46875 664.980469 " fill-opacity="1" fill-rule="nonzero"/><g clip-path="url(#08b700afed)"><path fill="#b0c4d0" d="M 191.890625 374.753906 C 209.324219 368.71875 223.675781 354.773438 229.039062 336.398438 C 235.074219 315.746094 229.175781 285.835938 208.117188 276.316406 C 199.265625 272.292969 189.074219 272.425781 179.550781 273.902344 C 155.679688 277.65625 110.480469 282.753906 111.6875 315.878906 C 112.359375 334.253906 118.664062 352.492188 133.148438 364.5625 C 144.144531 373.683594 158.363281 378.109375 172.578125 378.109375 C 179.148438 377.972656 185.722656 376.902344 191.890625 374.753906 Z M 191.890625 374.753906 " fill-opacity="1" fill-rule="nonzero"/></g><g clip-path="url(#37f3cfd2d7)"><path fill="#8cb6b8" d="M 54.691406 700.65625 C 73.734375 694.085938 89.425781 678.796875 95.328125 658.679688 C 101.898438 636.148438 95.460938 603.421875 72.394531 592.828125 C 62.738281 588.402344 51.605469 588.535156 41.144531 590.144531 C 14.992188 594.167969 -34.363281 599.800781 -33.023438 636.011719 C -32.351562 656.128906 -25.378906 676.113281 -9.550781 689.257812 C 2.519531 699.316406 18.078125 704.144531 33.5 704.007812 C 40.875 704.144531 47.984375 702.9375 54.691406 700.65625 Z M 54.691406 700.65625 " fill-opacity="1" fill-rule="nonzero"/></g><path fill="#74a1ba" d="M 108.605469 530.328125 C 131.136719 525.097656 144.144531 498.277344 139.449219 476.683594 C 137.4375 467.699219 132.609375 459.113281 124.964844 453.882812 C 112.226562 445.167969 93.984375 446.507812 79.636719 449.859375 C 62.871094 453.75 44.496094 466.355469 42.351562 484.863281 C 41.011719 496.53125 47.714844 507.796875 56.433594 515.578125 C 70.113281 527.78125 90.5 534.488281 108.605469 530.328125 Z M 108.605469 530.328125 " fill-opacity="1" fill-rule="nonzero"/><path fill="#a6c1cb" d="M 319.300781 507.933594 C 328.957031 488.21875 327.617188 464.34375 306.15625 449.324219 C 284.5625 434.167969 251.972656 437.121094 229.578125 449.324219 C 202.484375 464.210938 196.046875 498.277344 202.21875 526.304688 C 211.875 569.757812 266.191406 550.847656 293.011719 536.097656 C 304.277344 529.792969 313.667969 519.464844 319.300781 507.933594 Z M 319.300781 507.933594 " fill-opacity="1" fill-rule="nonzero"/><path fill="#89b9bc" d="M 71.1875 358.796875 C 76.820312 347.261719 76.015625 333.449219 63.542969 324.730469 C 50.933594 316.011719 32.023438 317.621094 19.015625 324.730469 C 3.191406 333.3125 -0.566406 353.164062 3.054688 369.523438 C 8.6875 394.738281 40.339844 383.742188 55.898438 375.15625 C 62.46875 371.402344 67.96875 365.5 71.1875 358.796875 Z M 71.1875 358.796875 " fill-opacity="1" fill-rule="nonzero"/><path fill="#89b9bc" d="M 233.207031 1064.765625 C 233.875 1064.898438 234.546875 1065.03125 235.351562 1065.03125 C 244.203125 1065.703125 253.859375 1060.742188 259.222656 1053.765625 C 264.457031 1047.0625 264.589844 1038.746094 264.722656 1030.566406 C 264.859375 1019.164062 265.125 1006.828125 261.90625 995.828125 C 260.164062 989.660156 256.542969 983.089844 250.507812 980.539062 C 242.726562 977.1875 234.011719 980.675781 226.367188 984.160156 C 221.269531 986.574219 216.171875 989.125 212.285156 993.148438 C 200.882812 1004.679688 197.664062 1027.210938 204.773438 1041.5625 C 209.46875 1051.621094 221.402344 1062.753906 233.207031 1064.765625 Z M 233.207031 1064.765625 " fill-opacity="1" fill-rule="nonzero"/><path fill="#b0c4d0" d="M 248.628906 774.539062 C 266.066406 768.503906 280.414062 754.554688 285.78125 736.179688 C 291.816406 715.527344 285.914062 685.621094 264.859375 676.097656 C 256.003906 672.074219 245.8125 672.207031 236.289062 673.683594 C 212.417969 677.4375 167.222656 682.535156 168.429688 715.660156 C 169.097656 734.035156 175.402344 752.273438 189.886719 764.34375 C 200.882812 773.464844 215.101562 777.890625 229.316406 777.890625 C 235.886719 777.757812 242.460938 776.683594 248.628906 774.539062 Z M 248.628906 774.539062 " fill-opacity="1" fill-rule="nonzero"/><path fill="#8cb6b8" d="M 111.429688 1100.4375 C 130.472656 1093.867188 146.164062 1078.578125 152.066406 1058.460938 C 158.636719 1035.929688 152.199219 1003.207031 129.132812 992.609375 C 119.476562 988.183594 108.34375 988.320312 97.882812 989.929688 C 71.730469 993.953125 22.375 999.585938 23.71875 1035.796875 C 24.386719 1055.914062 31.363281 1075.894531 47.1875 1089.039062 C 59.257812 1099.097656 74.816406 1103.925781 90.238281 1103.792969 C 97.613281 1103.925781 104.722656 1102.71875 111.429688 1100.4375 Z M 111.429688 1100.4375 " fill-opacity="1" fill-rule="nonzero"/><path fill="#74a1ba" d="M 165.34375 930.113281 C 187.875 924.882812 200.882812 898.058594 196.191406 876.464844 C 194.179688 867.480469 189.351562 858.898438 181.707031 853.667969 C 168.964844 844.949219 150.726562 846.289062 136.375 849.644531 C 119.609375 853.53125 101.238281 866.140625 99.089844 884.648438 C 97.75 896.316406 104.457031 907.582031 113.171875 915.359375 C 126.851562 927.5625 147.238281 934.269531 165.34375 930.113281 Z M 165.34375 930.113281 " fill-opacity="1" fill-rule="nonzero"/><path fill="#cbdad9" d="M 46.917969 920.589844 C 44.90625 909.191406 39.675781 899.265625 27.605469 896.449219 C 13.523438 893.230469 -6.859375 896.851562 -15.847656 908.921875 C -28.988281 926.492188 -17.589844 958.277344 2.660156 965.652344 C 12.183594 969.140625 28.277344 966.457031 36.324219 959.886719 C 46.785156 951.4375 49.46875 934.804688 46.917969 920.589844 Z M 46.917969 920.589844 " fill-opacity="1" fill-rule="nonzero"/><path fill="#a6c1cb" d="M 376.039062 907.714844 C 385.695312 888 384.355469 864.128906 362.894531 849.105469 C 341.304688 833.953125 308.714844 836.902344 286.316406 849.105469 C 259.222656 863.992188 252.785156 898.058594 258.957031 926.089844 C 268.613281 969.542969 322.929688 950.632812 349.753906 935.878906 C 361.019531 929.574219 370.40625 919.25 376.039062 907.714844 Z M 376.039062 907.714844 " fill-opacity="1" fill-rule="nonzero"/><path fill="#89b9bc" d="M 127.925781 758.578125 C 133.558594 747.042969 132.753906 733.230469 120.28125 724.511719 C 107.675781 715.796875 88.761719 717.40625 75.753906 724.511719 C 59.929688 733.097656 56.171875 752.945312 59.792969 769.308594 C 65.425781 794.519531 97.078125 783.523438 112.636719 774.941406 C 119.207031 771.183594 124.707031 765.285156 127.925781 758.578125 Z M 127.925781 758.578125 " fill-opacity="1" fill-rule="nonzero"/><path fill="#78a7bc" d="M 33.910156 803.371094 C 40.214844 787.949219 39.8125 770.378906 27.742188 752.945312 C 17.144531 737.523438 0.382812 728.535156 -16.113281 725.453125 C -59.433594 717.269531 -94.304688 762.332031 -85.855469 810.480469 C -82.769531 828.453125 -71.503906 845.753906 -55.277344 850.984375 C -25.769531 860.238281 20.230469 836.769531 33.910156 803.371094 Z M 33.910156 803.371094 " fill-opacity="1" fill-rule="nonzero"/><path fill="#78a7bc" d="M 1988.507812 69.9375 C 1994.8125 54.515625 1994.410156 36.945312 1982.339844 19.511719 C 1971.742188 4.085938 1954.980469 -4.898438 1938.484375 -7.984375 C 1895.164062 -16.164062 1860.292969 28.898438 1868.742188 77.046875 C 1871.828125 95.019531 1883.09375 112.320312 1899.320312 117.550781 C 1928.828125 126.804688 1974.828125 103.332031 1988.507812 69.9375 Z M 1988.507812 69.9375 " fill-opacity="1" fill-rule="nonzero"/><path fill="#cbdad9" d="M 1953.222656 520.808594 C 1951.210938 509.40625 1945.980469 499.484375 1933.910156 496.667969 C 1919.828125 493.449219 1899.445312 497.070312 1890.457031 509.140625 C 1877.3125 526.707031 1888.714844 558.492188 1908.964844 565.871094 C 1918.488281 569.355469 1934.582031 566.675781 1942.628906 560.101562 C 1953.089844 551.652344 1955.773438 535.023438 1953.222656 520.808594 Z M 1953.222656 520.808594 " fill-opacity="1" fill-rule="nonzero"/><path fill="#78a7bc" d="M 1940.214844 403.589844 C 1946.519531 388.167969 1946.117188 370.597656 1934.046875 353.164062 C 1923.449219 337.738281 1906.6875 328.753906 1890.1875 325.667969 C 1846.871094 317.488281 1812 362.550781 1820.449219 410.699219 C 1823.535156 428.671875 1834.800781 445.972656 1851.027344 451.203125 C 1880.53125 460.457031 1926.535156 436.984375 1940.214844 403.589844 Z M 1940.214844 403.589844 " fill-opacity="1" fill-rule="nonzero"/><path fill="#cbdad9" d="M 1953.222656 952.808594 C 1951.210938 941.40625 1945.980469 931.484375 1933.910156 928.667969 C 1919.828125 925.449219 1899.445312 929.070312 1890.457031 941.140625 C 1877.3125 958.707031 1888.714844 990.492188 1908.964844 997.871094 C 1918.488281 1001.355469 1934.582031 998.675781 1942.628906 992.101562 C 1953.089844 983.652344 1955.773438 967.023438 1953.222656 952.808594 Z M 1953.222656 952.808594 " fill-opacity="1" fill-rule="nonzero"/><path fill="#78a7bc" d="M 1940.214844 835.589844 C 1946.519531 820.167969 1946.117188 802.597656 1934.046875 785.164062 C 1923.449219 769.738281 1906.6875 760.753906 1890.1875 757.667969 C 1846.871094 749.488281 1812 794.550781 1820.449219 842.699219 C 1823.535156 860.671875 1834.800781 877.972656 1851.027344 883.203125 C 1880.53125 892.457031 1926.535156 868.984375 1940.214844 835.589844 Z M 1940.214844 835.589844 " fill-opacity="1" fill-rule="nonzero"/></svg>